<svg width="13" height="5" viewBox="0 0 13 5" fill="none" xmlns="http://www.w3.org/2000/svg">
<path d="M9.722 4.95C10.094 4.182 10.442 3.606 10.766 3.222H0.272V2.466H10.766C10.442 2.082 10.094 1.506 9.722 0.738H10.352C11.108 1.614 11.9 2.262 12.728 2.682V3.006C11.9 3.426 11.108 4.074 10.352 4.95H9.722Z" fill="black"/>
<path d="M9.722 4.95L9.27201 4.73204L8.92425 5.45H9.722V4.95ZM10.766 3.222L11.1481 3.54444L11.8421 2.722H10.766V3.222ZM0.272 3.222H-0.228V3.722H0.272V3.222ZM0.272 2.466V1.966H-0.228V2.466H0.272ZM10.766 2.466V2.966H11.8421L11.1481 2.14356L10.766 2.466ZM9.722 0.738V0.238H8.92425L9.27201 0.955964L9.722 0.738ZM10.352 0.738L10.7305 0.411325L10.5809 0.238H10.352V0.738ZM12.728 2.682H13.228V2.37498L12.9542 2.23609L12.728 2.682ZM12.728 3.006L12.9542 3.45191L13.228 3.31302V3.006H12.728ZM10.352 4.95V5.45H10.5809L10.7305 5.27667L10.352 4.95ZM10.172 5.16796C10.5366 4.4153 10.8633 3.88206 11.1481 3.54444L10.3839 2.89956C10.0207 3.32994 9.65144 3.9487 9.27201 4.73204L10.172 5.16796ZM10.766 2.722H0.272V3.722H10.766V2.722ZM0.772 3.222V2.466H-0.228V3.222H0.772ZM0.272 2.966H10.766V1.966H0.272V2.966ZM11.1481 2.14356C10.8633 1.80594 10.5366 1.2727 10.172 0.520036L9.27201 0.955964C9.65144 1.7393 10.0207 2.35806 10.3839 2.78843L11.1481 2.14356ZM9.722 1.238H10.352V0.238H9.722V1.238ZM9.97347 1.06467C10.7619 1.97823 11.6034 2.67218 12.5018 3.12791L12.9542 2.23609C12.1966 1.85182 11.4541 1.24977 10.7305 0.411325L9.97347 1.06467ZM12.228 2.682V3.006H13.228V2.682H12.228ZM12.5018 2.56009C11.6034 3.01582 10.7619 3.70977 9.97347 4.62333L10.7305 5.27667C11.4541 4.43823 12.1966 3.83618 12.9542 3.45191L12.5018 2.56009ZM10.352 4.45H9.722V5.45H10.352V4.45Z" fill="black"/>
</svg>
