<svg width="37" height="30" viewBox="0 0 37 30" fill="none" xmlns="http://www.w3.org/2000/svg">
<path d="M23.0051 8.05711L21.2052 6.23526L9.64733 17.9341C8.86658 18.7238 7.80788 19.1673 6.70413 19.1669C5.60037 19.1665 4.54198 18.7223 3.76178 17.932C2.98158 17.1418 2.54348 16.0702 2.54386 14.9529C2.54425 13.8357 2.98308 12.7644 3.76383 11.9747L13.735 1.88191L11.9351 0.0600586L1.96393 10.1529C1.32916 10.7805 0.823724 11.5293 0.476907 12.3561C0.130089 13.1828 -0.0512212 14.071 -0.056521 14.9691C-0.0618208 15.8673 0.108995 16.7576 0.446032 17.5884C0.783069 18.4193 1.27963 19.1742 1.90694 19.8095C2.53426 20.4447 3.27987 20.9476 4.10058 21.2891C4.92129 21.6307 5.80078 21.8039 6.68812 21.799C7.57546 21.794 8.45301 21.6108 9.26993 21.2602C10.0868 20.9095 10.8269 20.3982 11.4472 19.756L23.0051 8.05711ZM34.5097 10.1529C33.2502 8.8822 31.5443 8.16871 29.766 8.16871C27.9877 8.16871 26.2819 8.8822 25.0223 10.1529L13.4644 21.8517L15.2643 23.6736L26.8222 11.9747C27.4044 11.3866 28.1458 10.9862 28.9527 10.8243C29.7595 10.6624 30.5957 10.7462 31.3556 11.065C32.1154 11.3839 32.7649 11.9235 33.2219 12.6157C33.679 13.308 33.9231 14.1218 33.9234 14.9544C33.9255 15.5091 33.8178 16.0585 33.6065 16.5703C33.3952 17.0821 33.0848 17.5458 32.6934 17.9341L22.7345 28.0269L24.5385 29.8488L34.5097 19.756C35.7661 18.4816 36.4717 16.7547 36.4717 14.9544C36.4717 13.1541 35.7661 11.4273 34.5097 10.1529Z" fill="#E9E9E9"/>
</svg>
