<svg width="12" height="14" viewBox="0 0 12 14" fill="none" xmlns="http://www.w3.org/2000/svg">
<path fill-rule="evenodd" clip-rule="evenodd" d="M8.69333 10.26C9.04 9.94665 9.49333 9.74665 10 9.74665C11.0733 9.74665 11.9467 10.62 11.9467 11.6933C11.9467 12.7667 11.0733 13.64 10 13.64C8.92667 13.64 8.05333 12.7667 8.05333 11.6933C8.05333 11.5467 8.07333 11.4 8.10667 11.26L3.36 8.48665C3 8.81998 2.52667 9.02665 2 9.02665C0.893333 9.02665 0 8.13332 0 7.02665C0 5.91998 0.893333 5.02665 2 5.02665C2.52667 5.02665 3 5.23332 3.36 5.56665L8.06 2.82665C8.02667 2.67332 8 2.51999 8 2.35999C8 1.25332 8.89333 0.359985 10 0.359985C11.1067 0.359985 12 1.25332 12 2.35999C12 3.46665 11.1067 4.35999 10 4.35999C9.47333 4.35999 9 4.15332 8.64 3.81999L3.94 6.55999C3.97333 6.71332 4 6.86665 4 7.02665C4 7.18665 3.97333 7.33998 3.94 7.49332L8.69333 10.26ZM10.6667 2.35999C10.6667 1.99332 10.3667 1.69332 10 1.69332C9.63333 1.69332 9.33333 1.99332 9.33333 2.35999C9.33333 2.72665 9.63333 3.02665 10 3.02665C10.3667 3.02665 10.6667 2.72665 10.6667 2.35999ZM2 7.69332C1.63333 7.69332 1.33333 7.39332 1.33333 7.02665C1.33333 6.65999 1.63333 6.35999 2 6.35999C2.36667 6.35999 2.66667 6.65999 2.66667 7.02665C2.66667 7.39332 2.36667 7.69332 2 7.69332ZM9.33333 11.7067C9.33333 12.0733 9.63333 12.3733 10 12.3733C10.3667 12.3733 10.6667 12.0733 10.6667 11.7067C10.6667 11.34 10.3667 11.04 10 11.04C9.63333 11.04 9.33333 11.34 9.33333 11.7067Z" fill="white"/>
</svg>
