<svg width="14" height="13" viewBox="0 0 14 13" fill="none" xmlns="http://www.w3.org/2000/svg">
<path fill-rule="evenodd" clip-rule="evenodd" d="M2.48099 6.463C2.67195 6.463 2.85508 6.53886 2.99011 6.67388C3.12514 6.80891 3.20099 6.99204 3.20099 7.183V11.049H11.361V7.183C11.361 6.99204 11.4368 6.80891 11.5719 6.67388C11.7069 6.53886 11.89 6.463 12.081 6.463C12.2719 6.463 12.4551 6.53886 12.5901 6.67388C12.7251 6.80891 12.801 6.99204 12.801 7.183V11.289C12.8011 11.4467 12.7702 11.6028 12.7099 11.7485C12.6497 11.8942 12.5613 12.0266 12.4499 12.1382C12.3384 12.2497 12.2061 12.3382 12.0604 12.3986C11.9148 12.4589 11.7587 12.49 11.601 12.49H2.96099C2.80332 12.49 2.6472 12.4589 2.50154 12.3986C2.35589 12.3382 2.22355 12.2497 2.11211 12.1382C2.00067 12.0266 1.9123 11.8942 1.85205 11.7485C1.7918 11.6028 1.76086 11.4467 1.76099 11.289V7.183C1.76099 6.99204 1.83685 6.80891 1.97188 6.67388C2.1069 6.53886 2.29004 6.463 2.48099 6.463ZM3.02399 1.926L2.47499 3.847H12.086L11.537 1.926H3.02299H3.02399ZM2.11999 0.728C2.32828 0.570882 2.58209 0.485926 2.84299 0.486H11.719C11.9799 0.486004 12.2337 0.571028 12.4419 0.728195C12.6501 0.885362 12.8015 1.10611 12.873 1.357L13.734 4.37C13.7646 4.47714 13.77 4.58994 13.7496 4.6995C13.7293 4.80907 13.6838 4.91241 13.6167 5.0014C13.5496 5.09039 13.4628 5.16259 13.3631 5.21233C13.2633 5.26206 13.1534 5.28796 13.042 5.288H1.51999C1.40855 5.28796 1.29864 5.26206 1.19892 5.21233C1.09919 5.16259 1.01237 5.09039 0.945286 5.0014C0.878205 4.91241 0.832696 4.80907 0.812343 4.6995C0.791989 4.58994 0.797347 4.47714 0.827992 4.37L1.68899 1.357C1.76045 1.10605 1.91176 0.885233 2.11999 0.728Z" fill="#624CE0"/>
<path d="M1.51999 3.847C1.71094 3.847 1.89408 3.92286 2.0291 4.05788C2.16413 4.19291 2.23999 4.37604 2.23999 4.567V5.527C2.23986 5.68467 2.2708 5.84082 2.33105 5.98653C2.39129 6.13223 2.47966 6.26464 2.59111 6.37617C2.70255 6.48771 2.83488 6.57619 2.98054 6.63656C3.12619 6.69693 3.28232 6.728 3.43999 6.728C3.59766 6.728 3.75378 6.69693 3.89944 6.63656C4.04509 6.57619 4.17743 6.48771 4.28887 6.37617C4.40031 6.26464 4.48868 6.13223 4.54893 5.98653C4.60918 5.84082 4.64012 5.68467 4.63999 5.527V4.567C4.63999 4.47245 4.65861 4.37882 4.69479 4.29147C4.73098 4.20411 4.78401 4.12474 4.85087 4.05788C4.91773 3.99102 4.9971 3.93799 5.08446 3.90181C5.17181 3.86562 5.26544 3.847 5.35999 3.847C5.45454 3.847 5.54817 3.86562 5.63552 3.90181C5.72287 3.93799 5.80225 3.99102 5.8691 4.05788C5.93596 4.12474 5.989 4.20411 6.02518 4.29147C6.06137 4.37882 6.07999 4.47245 6.07999 4.567V5.527C6.08012 5.87377 6.01193 6.21718 5.87932 6.53759C5.7467 6.85801 5.55226 7.14916 5.3071 7.39441C5.06194 7.63966 4.77087 7.83421 4.4505 7.96695C4.13014 8.09968 3.78676 8.168 3.43999 8.168C3.09321 8.168 2.74984 8.09968 2.42947 7.96695C2.10911 7.83421 1.81803 7.63966 1.57287 7.39441C1.32771 7.14916 1.13327 6.85801 1.00066 6.53759C0.868046 6.21718 0.799857 5.87377 0.799988 5.527V4.567C0.799988 4.37604 0.875845 4.19291 1.01087 4.05788C1.1459 3.92286 1.32903 3.847 1.51999 3.847Z" fill="#624CE0"/>
<path fill-rule="evenodd" clip-rule="evenodd" d="M5.36001 3.847C5.55097 3.847 5.73411 3.92286 5.86913 4.05788C6.00416 4.19291 6.08001 4.37604 6.08001 4.567V5.527C6.07988 5.68467 6.11082 5.84082 6.17107 5.98653C6.23132 6.13223 6.31969 6.26464 6.43113 6.37617C6.54258 6.48771 6.67491 6.57619 6.82056 6.63656C6.96622 6.69693 7.12234 6.728 7.28002 6.728C7.43769 6.728 7.59381 6.69693 7.73946 6.63656C7.88512 6.57619 8.01745 6.48771 8.1289 6.37617C8.24034 6.26464 8.32871 6.13223 8.38896 5.98653C8.4492 5.84082 8.48015 5.68467 8.48001 5.527V4.567C8.48001 4.37604 8.55587 4.19291 8.6909 4.05788C8.82592 3.92286 9.00906 3.847 9.20002 3.847C9.39097 3.847 9.5741 3.92286 9.70913 4.05788C9.84416 4.19291 9.92001 4.37604 9.92001 4.567V5.527C9.92015 5.87377 9.85196 6.21718 9.71934 6.53759C9.58673 6.85801 9.39229 7.14916 9.14713 7.39441C8.90197 7.63966 8.6109 7.83421 8.29053 7.96695C7.97017 8.09968 7.62679 8.168 7.28002 8.168C6.93324 8.168 6.58986 8.09968 6.2695 7.96695C5.94914 7.83421 5.65806 7.63966 5.4129 7.39441C5.16774 7.14916 4.9733 6.85801 4.84069 6.53759C4.70807 6.21718 4.63988 5.87377 4.64001 5.527V4.567C4.64001 4.37604 4.71587 4.19291 4.8509 4.05788C4.98592 3.92286 5.16906 3.847 5.36001 3.847Z" fill="#624CE0"/>
<path fill-rule="evenodd" clip-rule="evenodd" d="M9.19998 3.847C9.39094 3.847 9.57407 3.92286 9.7091 4.05788C9.84412 4.19291 9.91998 4.37604 9.91998 4.567V5.527C9.91985 5.68467 9.95079 5.84082 10.011 5.98653C10.0713 6.13223 10.1597 6.26464 10.2711 6.37617C10.3825 6.48771 10.5149 6.57619 10.6605 6.63656C10.8062 6.69693 10.9623 6.728 11.12 6.728C11.2777 6.728 11.4338 6.69693 11.5794 6.63656C11.7251 6.57619 11.8574 6.48771 11.9689 6.37617C12.0803 6.26464 12.1687 6.13223 12.2289 5.98653C12.2892 5.84082 12.3201 5.68467 12.32 5.527V4.567C12.32 4.37604 12.3958 4.19291 12.5309 4.05788C12.6659 3.92286 12.849 3.847 13.04 3.847C13.2309 3.847 13.4141 3.92286 13.5491 4.05788C13.6841 4.19291 13.76 4.37604 13.76 4.567V5.527C13.7601 5.87377 13.6919 6.21718 13.5593 6.53759C13.4267 6.85801 13.2323 7.14916 12.9871 7.39441C12.7419 7.63966 12.4509 7.83421 12.1305 7.96695C11.8101 8.09968 11.4668 8.168 11.12 8.168C10.7732 8.168 10.4298 8.09968 10.1095 7.96695C9.7891 7.83421 9.49802 7.63966 9.25287 7.39441C9.00771 7.14916 8.81327 6.85801 8.68065 6.53759C8.54804 6.21718 8.47985 5.87377 8.47998 5.527V4.567C8.47998 4.37604 8.55584 4.19291 8.69086 4.05788C8.82589 3.92286 9.00903 3.847 9.19998 3.847Z" fill="#624CE0"/>
</svg>
